<svg width="21" height="21" viewBox="0 0 21 21" fill="#FB565A" fill-opacity="0.3"  stroke="black" xmlns="http://www.w3.org/2000/svg">
<g filter="url(#filter0_d)">
<path d="M13.3391 10.5088L20.7163 3.13165C21.1056 2.74233 21.1056 2.1058 20.7163 1.71647L19.3011 0.300294C18.9118 -0.0890303 18.2752 -0.0890303 17.8859 0.300294L10.5088 7.67844L3.13163 0.301295C2.7423 -0.0880295 2.10577 -0.0880295 1.71645 0.301295L0.301271 1.71647C-0.0880537 2.1058 -0.0880537 2.74233 0.301271 3.13165L7.67842 10.5088L0.301271 17.8859C-0.0880537 18.2753 -0.0880537 18.9118 0.301271 19.3011L1.71745 20.7163C2.10678 21.1056 2.74331 21.1056 3.13263 20.7163L10.5098 13.3392L17.8869 20.7163C18.2762 21.1056 18.9128 21.1056 19.3021 20.7163L20.7173 19.3011C21.1066 18.9118 21.1066 18.2753 20.7173 17.8859L13.3391 10.5088Z" />
<path d="M12.9856 10.1552L12.632 10.5088L12.9856 10.8624L20.3637 18.2395C20.3637 18.2395 20.3637 18.2395 20.3638 18.2395C20.5578 18.4336 20.5578 18.7535 20.3637 18.9476L18.9485 20.3628C18.7545 20.5568 18.4345 20.5568 18.2405 20.3628L10.8633 12.9856L10.5098 12.6321L10.1562 12.9856L2.77908 20.3628C2.58501 20.5568 2.26507 20.5568 2.071 20.3628L2.07088 20.3626L0.654824 18.9476C0.654782 18.9475 0.654741 18.9475 0.654699 18.9474C0.460762 18.7534 0.460804 18.4335 0.654824 18.2395L8.03197 10.8624L8.38552 10.5088L8.03197 10.1552L0.654824 2.7781C0.460762 2.58404 0.460762 2.26409 0.654824 2.07003L2.07 0.654848C2.26407 0.460786 2.58401 0.460786 2.77808 0.654848L10.1552 8.032L10.5088 8.38557L10.8624 8.03197L18.2395 0.653848C18.4335 0.459827 18.7533 0.459786 18.9474 0.653722C18.9475 0.653764 18.9475 0.653806 18.9475 0.653848L20.3626 2.0699L20.3627 2.07003C20.5568 2.26409 20.5568 2.58404 20.3627 2.7781L12.9856 10.1552Z"/>
</g>
<defs>
<filter id="filter0_d" x="-3.99072" y="0.00830078" width="29" height="29" filterUnits="userSpaceOnUse" color-interpolation-filters="sRGB">
<feFlood flood-opacity="0" result="BackgroundImageFix"/>
<feColorMatrix in="SourceAlpha" type="matrix" values="0 0 0 0 0 0 0 0 0 0 0 0 0 0 0 0 0 0 127 0"/>
<feOffset dy="4"/>
<feGaussianBlur stdDeviation="2"/>
<feColorMatrix type="matrix" values="0 0 0 0 0 0 0 0 0 0 0 0 0 0 0 0 0 0 0.25 0"/>
<feBlend mode="normal" in2="BackgroundImageFix" result="effect1_dropShadow"/>
<feBlend mode="normal" in="SourceGraphic" in2="effect1_dropShadow" result="shape"/>
</filter>
</defs>
</svg>
